<svg fill="#000000" width="91" version="1.1" id="Capa_1" xmlns="http://www.w3.org/2000/svg" xmlns:xlink="http://www.w3.org/1999/xlink"
	 viewBox="0 0 442 442" xml:space="preserve">
<g>
	<path d="M321,179.372h-90v-90c0-5.522-4.477-10-10-10c-5.523,0-10,4.478-10,10v90h-90c-11.028,0-20,8.972-20,20V432
		c0,5.522,4.477,10,10,10h220c5.523,0,10-4.478,10-10V199.372C341,188.344,332.028,179.372,321,179.372z M321,422H121V199.372h200
		V422z"/>
	<path d="M197.006,131.71c4.416-3.316,5.306-9.586,1.989-14.001C190.493,106.391,186,92.916,186,78.741
		c0-24.35,13.601-46.523,35-57.663c21.399,11.14,35,33.313,35,57.663c0,14.177-4.493,27.651-12.994,38.968
		c-3.317,4.415-2.427,10.685,1.989,14.001c1.8,1.352,3.908,2.006,5.999,2.006c3.038,0,6.038-1.379,8.003-3.995
		C270.12,114.913,276,97.284,276,78.741c0-33.786-20.017-64.365-50.995-77.904c-2.554-1.115-5.456-1.115-8.01,0
		C186.016,14.375,166,44.955,166,78.741c0,18.542,5.88,36.171,17.005,50.979C186.321,134.135,192.589,135.027,197.006,131.71z"/>
</g>
</svg>
