<svg xmlns="http://www.w3.org/2000/svg" width="91" fill="none" viewBox="0 0 333 232">
  <path
    fill="rgb(1, 50, 41)"
    fillRule="evenodd"
    d="M218.137 149.778c-10.998 17.506-30.483 29.143-52.687 29.143-21.514 0-40.475-10.925-51.638-27.529-11.161 16.606-30.124 27.532-51.639 27.532-15.755 0-30.14-5.859-41.097-15.516v57.831c0 5.722-4.718 10.361-10.538 10.361S0 226.961 0 221.239V117.636c0-.084.001-.168.003-.251a63.49 63.49 0 01-.003-.622c0-34.33 27.836-62.16 62.173-62.16 21.514 0 40.475 10.925 51.638 27.528C124.972 65.526 143.935 54.6 165.45 54.6c16.785 0 32.016 6.65 43.202 17.458v-6.923c0-5.818 4.717-10.535 10.537-10.535 5.82 0 10.538 4.717 10.538 10.535v52.679h.013c.559 22.206 18.739 40.036 41.084 40.036 22.346 0 40.526-17.83 41.085-40.036h.013V65.135c0-5.818 4.718-10.535 10.538-10.535s10.537 4.717 10.537 10.535v52.679c0 .247-.008.492-.025.735-.947 33.503-28.409 60.372-62.148 60.372-22.203 0-41.688-11.637-52.687-29.143zm-52.687 8.072c22.698 0 41.097-18.396 41.097-41.09 0-22.693-18.399-41.089-41.097-41.089-22.697 0-41.097 18.396-41.097 41.089 0 22.694 18.4 41.09 41.097 41.09zm-62.18-41.087c0 22.693-18.4 41.09-41.097 41.09-22.698 0-41.097-18.397-41.097-41.09 0-22.693 18.4-41.09 41.097-41.09 22.697 0 41.097 18.397 41.097 41.09z"
    clipRule="evenodd"
  ></path>
  <path
    fill="#61CAA0"
    d="M144.804 26.955c-6.632-1.628-10.481-8.525-8.371-14.997 2.111-6.473 9.293-9.798 15.619-7.23L191.6 20.774c4.2 1.705 6.367 6.352 4.965 10.65-1.401 4.299-5.896 6.79-10.3 5.708l-41.461-10.178z"
  ></path>
</svg>
